<svg width="60" height="60" viewBox="0 0 60 60" fill="none" xmlns="http://www.w3.org/2000/svg">
<circle cx="29.8077" cy="29.8077" r="29.8077" fill="#F6F7F9"/>
<g clip-path="url(#clip0_199_636)">
<path d="M41.9957 37.7337C41.4949 38.8908 40.902 39.9559 40.2151 40.9352C39.2788 42.2701 38.5121 43.1942 37.9213 43.7073C37.0054 44.5496 36.0242 44.981 34.9734 45.0055C34.219 45.0055 33.3092 44.7908 32.2503 44.3554C31.1878 43.922 30.2114 43.7073 29.3187 43.7073C28.3823 43.7073 27.3782 43.922 26.3041 44.3554C25.2283 44.7908 24.3617 45.0178 23.6991 45.0403C22.6915 45.0832 21.6871 44.6396 20.6845 43.7073C20.0446 43.1492 19.2443 42.1925 18.2855 40.837C17.2567 39.3896 16.411 37.7112 15.7484 35.7977C15.0388 33.7308 14.6831 31.7294 14.6831 29.7918C14.6831 27.5722 15.1627 25.6579 16.1234 24.0537C16.8783 22.7651 17.8827 21.7486 19.1398 21.0024C20.3969 20.2563 21.7552 19.876 23.2179 19.8517C24.0183 19.8517 25.0678 20.0992 26.3721 20.5858C27.6728 21.074 28.5079 21.3216 28.874 21.3216C29.1478 21.3216 30.0755 21.0321 31.6482 20.455C33.1355 19.9198 34.3907 19.6981 35.419 19.7854C38.2055 20.0103 40.2989 21.1088 41.6911 23.0877C39.199 24.5977 37.9663 26.7126 37.9908 29.4256C38.0133 31.5389 38.78 33.2974 40.2866 34.6937C40.9695 35.3418 41.732 35.8427 42.5804 36.1984C42.3964 36.732 42.2022 37.2431 41.9957 37.7337ZM35.6051 12.586C35.6051 14.2424 34.9999 15.7889 33.7938 17.2204C32.3382 18.9221 30.5776 19.9054 28.6684 19.7503C28.644 19.5516 28.6299 19.3424 28.6299 19.1227C28.6299 17.5326 29.3221 15.8308 30.5514 14.4394C31.1651 13.7349 31.9457 13.1492 32.8922 12.6819C33.8367 12.2216 34.7301 11.967 35.5703 11.9234C35.5948 12.1449 35.6051 12.3663 35.6051 12.586V12.586Z" fill="black"/>
</g>
<defs>
<clipPath id="clip0_199_636">
<rect width="33.1197" height="33.1197" fill="white" transform="translate(11.9231 11.9231)"/>
</clipPath>
</defs>
</svg>
