<svg xmlns="http://www.w3.org/2000/svg" version="1.1" xmlns:xlink="http://www.w3.org/1999/xlink" xmlns:svgjs="http://svgjs.dev/svgjs" width="1440" height="560" preserveAspectRatio="none" viewBox="0 0 1440 560"><g mask="url(&quot;#SvgjsMask1066&quot;)" fill="none"><path d="M142.03 229.64L147.34 217.99 159.88 220.61 165.19 208.96 177.72 211.58 183.03 199.93 195.57 202.55" stroke="rgba(39, 170, 225, 1)" stroke-width="1.39" stroke-dasharray="4, 4"></path><circle r="83.93826460493447" cx="50.59" cy="286.12" stroke="rgba(228, 222, 186, 1)" stroke-width="2.25"></circle><rect width="298.68" height="298.68" clip-path="url(&quot;#SvgjsClipPath1067&quot;)" x="-22.75" y="105.38" fill="url(&quot;#SvgjsPattern1068&quot;)" transform="rotate(167.66, 126.59, 254.72)"></rect><path d="M1301.3 559.59a5.6 5.6 0 1 0 2.02-11.02 5.6 5.6 0 1 0-2.02 11.02zM1304.18 543.85a5.6 5.6 0 1 0 2.03-11.01 5.6 5.6 0 1 0-2.03 11.01zM1307.07 528.12a5.6 5.6 0 1 0 2.02-11.02 5.6 5.6 0 1 0-2.02 11.02zM1309.96 512.38a5.6 5.6 0 1 0 2.02-11.02 5.6 5.6 0 1 0-2.02 11.02zM1311.26 593.95a5.6 5.6 0 1 0 2.02-11.01 5.6 5.6 0 1 0-2.02 11.01zM1314.14 578.22a5.6 5.6 0 1 0 2.03-11.02 5.6 5.6 0 1 0-2.03 11.02zM1317.03 562.48a5.6 5.6 0 1 0 2.03-11.02 5.6 5.6 0 1 0-2.03 11.02zM1319.92 546.74a5.6 5.6 0 1 0 2.02-11.01 5.6 5.6 0 1 0-2.02 11.01zM1321.22 628.32a5.6 5.6 0 1 0 2.02-11.02 5.6 5.6 0 1 0-2.02 11.02zM1324.11 612.58a5.6 5.6 0 1 0 2.02-11.02 5.6 5.6 0 1 0-2.02 11.02zM1326.99 596.84a5.6 5.6 0 1 0 2.03-11.01 5.6 5.6 0 1 0-2.03 11.01zM1329.88 581.1a5.6 5.6 0 1 0 2.02-11.01 5.6 5.6 0 1 0-2.02 11.01z" stroke="rgba(39, 170, 225, 1)" stroke-width="1.65" stroke-dasharray="4, 4"></path><path d="M394.9 192 L417.43 204.81L394.78699611804666 209.78300388195333z" stroke="rgba(228, 222, 186, 1)" stroke-width="1"></path><circle r="87.29912331614189" cx="1279.06" cy="192.73" stroke="rgba(228, 222, 186, 1)" stroke-width="2.77"></circle><circle r="46.666666666666664" cx="588.8" cy="183.99" stroke="rgba(39, 170, 225, 1)" stroke-width="1.11" stroke-dasharray="3, 3"></circle><rect width="297.36" height="297.36" clip-path="url(&quot;#SvgjsClipPath1069&quot;)" x="585.44" y="144.55" fill="url(&quot;#SvgjsPattern1070&quot;)" transform="rotate(162.21, 734.12, 293.23)"></rect><rect width="120" height="120" clip-path="url(&quot;#SvgjsClipPath1071&quot;)" x="1133.73" y="-8.95" fill="url(&quot;#SvgjsPattern1072&quot;)" transform="rotate(255.84, 1193.73, 51.05)"></rect><rect width="180.4" height="180.4" clip-path="url(&quot;#SvgjsClipPath1073&quot;)" x="967.51" y="246.78" fill="url(&quot;#SvgjsPattern1074&quot;)" transform="rotate(26.68, 1057.71, 336.98)"></rect><circle r="46.666666666666664" cx="795.99" cy="531.44" fill="rgba(39, 170, 225, 1)"></circle><path d="M1026.81 209.2 L1151.3600000000001 246.11L1174.741678999339 141.9983210006611z" fill="rgba(228, 222, 186, 1)"></path></g><defs><mask id="SvgjsMask1066"><rect width="1440" height="560" fill="#ffffff"></rect></mask><pattern x="0" y="0" width="298.68" height="7.86" patternUnits="userSpaceOnUse" id="SvgjsPattern1068"><rect width="298.68" height="3.93" x="0" y="0" fill="rgba(39, 170, 225, 1)"></rect><rect width="298.68" height="3.93" x="0" y="3.93" fill="rgba(0, 0, 0, 0)"></rect></pattern><clipPath id="SvgjsClipPath1067"><circle r="74.67" cx="126.59" cy="254.72"></circle></clipPath><pattern x="0" y="0" width="8.26" height="8.26" patternUnits="userSpaceOnUse" id="SvgjsPattern1070"><path d="M0 8.26L4.13 0L8.26 8.26" stroke="rgba(228, 222, 186, 1)" fill="none"></path></pattern><clipPath id="SvgjsClipPath1069"><circle r="74.34" cx="734.12" cy="293.23"></circle></clipPath><pattern x="0" y="0" width="6" height="6" patternUnits="userSpaceOnUse" id="SvgjsPattern1072"><path d="M3 1L3 5M1 3L5 3" stroke="rgba(228, 222, 186, 1)" fill="none" stroke-width="1.73"></path></pattern><clipPath id="SvgjsClipPath1071"><circle r="30" cx="1193.73" cy="51.05"></circle></clipPath><pattern x="0" y="0" width="180.4" height="8.2" patternUnits="userSpaceOnUse" id="SvgjsPattern1074"><rect width="180.4" height="4.1" x="0" y="0" fill="rgba(228, 222, 186, 1)"></rect><rect width="180.4" height="4.1" x="0" y="4.1" fill="rgba(0, 0, 0, 0)"></rect></pattern><clipPath id="SvgjsClipPath1073"><circle r="45.1" cx="1057.71" cy="336.98"></circle></clipPath></defs></svg>