<svg width="19" height="19" viewBox="0 0 19 19" fill="none" xmlns="http://www.w3.org/2000/svg">
<path d="M7.72716 11.3737C7.27196 10.9193 6.99487 10.3018 6.99487 9.60909C6.99487 8.2213 8.11271 7.10268 9.49971 7.10268C10.1861 7.10268 10.8178 7.38055 11.2651 7.83497" stroke="#6C757D" stroke-width="1.5" stroke-linecap="round" stroke-linejoin="round"/>
<path d="M11.9579 10.0533C11.7743 11.0745 10.9699 11.8805 9.94946 12.0657" stroke="#6C757D" stroke-width="1.5" stroke-linecap="round" stroke-linejoin="round"/>
<path d="M5.26822 13.8322C4.01184 12.8458 2.94784 11.405 2.17676 9.6087C2.95576 7.80449 4.02688 6.35574 5.29117 5.36141C6.54755 4.36707 7.99709 3.82716 9.49968 3.82716C11.011 3.82716 12.4597 4.37499 13.724 5.37645" stroke="#6C757D" stroke-width="1.5" stroke-linecap="round" stroke-linejoin="round"/>
<path d="M15.396 7.11771C15.9406 7.8413 16.4196 8.67651 16.8225 9.6083C15.2653 13.2159 12.5135 15.389 9.49962 15.389C8.81641 15.389 8.1427 15.2782 7.49512 15.0621" stroke="#6C757D" stroke-width="1.5" stroke-linecap="round" stroke-linejoin="round"/>
<path d="M15.7439 3.36427L3.2561 15.852" stroke="#6C757D" stroke-width="1.5" stroke-linecap="round" stroke-linejoin="round"/>
</svg>
