<svg width="334" height="20" viewBox="0 0 334 20" fill="none" xmlns="http://www.w3.org/2000/svg">
<path d="M0.506836 16.065L0.636836 14.999H4.14684C4.32884 14.999 4.45884 15.051 4.53684 15.155C4.6235 15.2503 4.66684 15.3673 4.66684 15.506C4.66684 15.6447 4.60617 15.7747 4.48484 15.896C4.3635 16.0087 4.2075 16.065 4.01684 16.065H0.506836ZM4.01074 16.065L4.14074 14.999H7.65074C7.83274 14.999 7.96274 15.051 8.04074 15.155C8.12741 15.2503 8.17074 15.3673 8.17074 15.506C8.17074 15.6447 8.11008 15.7747 7.98874 15.896C7.86741 16.0087 7.71141 16.065 7.52074 16.065H4.01074ZM7.51465 16.065L7.64465 14.999H11.1546C11.3366 14.999 11.4666 15.051 11.5446 15.155C11.6313 15.2503 11.6746 15.3673 11.6746 15.506C11.6746 15.6447 11.614 15.7747 11.4926 15.896C11.3713 16.0087 11.2153 16.065 11.0246 16.065H7.51465ZM11.0186 16.065L11.1486 14.999H14.6586C14.8406 14.999 14.9706 15.051 15.0486 15.155C15.1352 15.2503 15.1786 15.3673 15.1786 15.506C15.1786 15.6447 15.1179 15.7747 14.9966 15.896C14.8752 16.0087 14.7192 16.065 14.5286 16.065H11.0186ZM14.5225 16.065L14.6525 14.999H18.1625C18.3445 14.999 18.4745 15.051 18.5525 15.155C18.6391 15.2503 18.6825 15.3673 18.6825 15.506C18.6825 15.6447 18.6218 15.7747 18.5005 15.896C18.3791 16.0087 18.2231 16.065 18.0325 16.065H14.5225ZM18.0264 16.065L18.1564 14.999H21.6664C21.8484 14.999 21.9784 15.051 22.0564 15.155C22.143 15.2503 22.1864 15.3673 22.1864 15.506C22.1864 15.6447 22.1257 15.7747 22.0044 15.896C21.883 16.0087 21.727 16.065 21.5364 16.065H18.0264ZM21.5303 16.065L21.6603 14.999H25.1703C25.3523 14.999 25.4823 15.051 25.5603 15.155C25.6469 15.2503 25.6903 15.3673 25.6903 15.506C25.6903 15.6447 25.6296 15.7747 25.5083 15.896C25.3869 16.0087 25.2309 16.065 25.0403 16.065H21.5303ZM25.0342 16.065L25.1642 14.999H28.6742C28.8562 14.999 28.9862 15.051 29.0642 15.155C29.1508 15.2503 29.1942 15.3673 29.1942 15.506C29.1942 15.6447 29.1335 15.7747 29.0122 15.896C28.8908 16.0087 28.7348 16.065 28.5442 16.065H25.0342ZM28.5381 16.065L28.6681 14.999H32.1781C32.3601 14.999 32.4901 15.051 32.5681 15.155C32.6548 15.2503 32.6981 15.3673 32.6981 15.506C32.6981 15.6447 32.6374 15.7747 32.5161 15.896C32.3948 16.0087 32.2388 16.065 32.0481 16.065H28.5381ZM32.042 16.065L32.172 14.999H35.682C35.864 14.999 35.994 15.051 36.072 15.155C36.1587 15.2503 36.202 15.3673 36.202 15.506C36.202 15.6447 36.1413 15.7747 36.02 15.896C35.8987 16.0087 35.7427 16.065 35.552 16.065H32.042ZM35.5459 16.065L35.6759 14.999H39.1859C39.3679 14.999 39.4979 15.051 39.5759 15.155C39.6626 15.2503 39.7059 15.3673 39.7059 15.506C39.7059 15.6447 39.6452 15.7747 39.5239 15.896C39.4026 16.0087 39.2466 16.065 39.0559 16.065H35.5459ZM39.0498 16.065L39.1798 14.999H42.6898C42.8718 14.999 43.0018 15.051 43.0798 15.155C43.1665 15.2503 43.2098 15.3673 43.2098 15.506C43.2098 15.6447 43.1491 15.7747 43.0278 15.896C42.9065 16.0087 42.7505 16.065 42.5598 16.065H39.0498ZM42.5537 16.065L42.6837 14.999H46.1937C46.3757 14.999 46.5057 15.051 46.5837 15.155C46.6704 15.2503 46.7137 15.3673 46.7137 15.506C46.7137 15.6447 46.653 15.7747 46.5317 15.896C46.4104 16.0087 46.2544 16.065 46.0637 16.065H42.5537ZM46.0576 16.065L46.1876 14.999H49.6976C49.8796 14.999 50.0096 15.051 50.0876 15.155C50.1743 15.2503 50.2176 15.3673 50.2176 15.506C50.2176 15.6447 50.157 15.7747 50.0356 15.896C49.9143 16.0087 49.7583 16.065 49.5676 16.065H46.0576ZM49.5615 16.065L49.6915 14.999H53.2015C53.3835 14.999 53.5135 15.051 53.5915 15.155C53.6782 15.2503 53.7215 15.3673 53.7215 15.506C53.7215 15.6447 53.6609 15.7747 53.5395 15.896C53.4182 16.0087 53.2622 16.065 53.0715 16.065H49.5615ZM53.0654 16.065L53.1954 14.999H56.7054C56.8874 14.999 57.0174 15.051 57.0954 15.155C57.1821 15.2503 57.2254 15.3673 57.2254 15.506C57.2254 15.6447 57.1648 15.7747 57.0434 15.896C56.9221 16.0087 56.7661 16.065 56.5754 16.065H53.0654ZM56.5693 16.065L56.6993 14.999H60.2093C60.3913 14.999 60.5213 15.051 60.5993 15.155C60.686 15.2503 60.7293 15.3673 60.7293 15.506C60.7293 15.6447 60.6687 15.7747 60.5473 15.896C60.426 16.0087 60.27 16.065 60.0793 16.065H56.5693ZM60.0732 16.065L60.2032 14.999H63.7132C63.8952 14.999 64.0252 15.051 64.1032 15.155C64.1899 15.2503 64.2332 15.3673 64.2332 15.506C64.2332 15.6447 64.1726 15.7747 64.0512 15.896C63.9299 16.0087 63.7739 16.065 63.5832 16.065H60.0732ZM63.5771 16.065L63.7071 14.999H67.2171C67.3991 14.999 67.5291 15.051 67.6071 15.155C67.6938 15.2503 67.7371 15.3673 67.7371 15.506C67.7371 15.6447 67.6765 15.7747 67.5551 15.896C67.4338 16.0087 67.2778 16.065 67.0871 16.065H63.5771ZM67.0811 16.065L67.2111 14.999H70.7211C70.9031 14.999 71.0331 15.051 71.1111 15.155C71.1977 15.2503 71.2411 15.3673 71.2411 15.506C71.2411 15.6447 71.1804 15.7747 71.0591 15.896C70.9377 16.0087 70.7817 16.065 70.5911 16.065H67.0811ZM70.585 16.065L70.715 14.999H74.225C74.407 14.999 74.537 15.051 74.615 15.155C74.7016 15.2503 74.745 15.3673 74.745 15.506C74.745 15.6447 74.6843 15.7747 74.563 15.896C74.4416 16.0087 74.2856 16.065 74.095 16.065H70.585ZM74.0889 16.065L74.2189 14.999H77.7289C77.9109 14.999 78.0409 15.051 78.1189 15.155C78.2055 15.2503 78.2489 15.3673 78.2489 15.506C78.2489 15.6447 78.1882 15.7747 78.0669 15.896C77.9455 16.0087 77.7895 16.065 77.5989 16.065H74.0889ZM77.5928 16.065L77.7228 14.999H81.2328C81.4148 14.999 81.5448 15.051 81.6228 15.155C81.7094 15.2503 81.7528 15.3673 81.7528 15.506C81.7528 15.6447 81.6921 15.7747 81.5708 15.896C81.4494 16.0087 81.2934 16.065 81.1028 16.065H77.5928ZM81.0967 16.065L81.2267 14.999H84.7367C84.9187 14.999 85.0487 15.051 85.1267 15.155C85.2133 15.2503 85.2567 15.3673 85.2567 15.506C85.2567 15.6447 85.196 15.7747 85.0747 15.896C84.9533 16.0087 84.7973 16.065 84.6067 16.065H81.0967ZM84.6006 16.065L84.7306 14.999H88.2406C88.4226 14.999 88.5526 15.051 88.6306 15.155C88.7173 15.2503 88.7606 15.3673 88.7606 15.506C88.7606 15.6447 88.6999 15.7747 88.5786 15.896C88.4573 16.0087 88.3013 16.065 88.1106 16.065H84.6006ZM88.1045 16.065L88.2345 14.999H91.7445C91.9265 14.999 92.0565 15.051 92.1345 15.155C92.2212 15.2503 92.2645 15.3673 92.2645 15.506C92.2645 15.6447 92.2038 15.7747 92.0825 15.896C91.9612 16.0087 91.8052 16.065 91.6145 16.065H88.1045ZM91.6084 16.065L91.7384 14.999H95.2484C95.4304 14.999 95.5604 15.051 95.6384 15.155C95.7251 15.2503 95.7684 15.3673 95.7684 15.506C95.7684 15.6447 95.7077 15.7747 95.5864 15.896C95.4651 16.0087 95.3091 16.065 95.1184 16.065H91.6084ZM95.1123 16.065L95.2423 14.999H98.7523C98.9343 14.999 99.0643 15.051 99.1423 15.155C99.229 15.2503 99.2723 15.3673 99.2723 15.506C99.2723 15.6447 99.2116 15.7747 99.0903 15.896C98.969 16.0087 98.813 16.065 98.6223 16.065H95.1123ZM98.6162 16.065L98.7462 14.999H102.256C102.438 14.999 102.568 15.051 102.646 15.155C102.733 15.2503 102.776 15.3673 102.776 15.506C102.776 15.6447 102.716 15.7747 102.594 15.896C102.473 16.0087 102.317 16.065 102.126 16.065H98.6162ZM102.12 16.065L102.25 14.999H105.76C105.942 14.999 106.072 15.051 106.15 15.155C106.237 15.2503 106.28 15.3673 106.28 15.506C106.28 15.6447 106.219 15.7747 106.098 15.896C105.977 16.0087 105.821 16.065 105.63 16.065H102.12ZM105.624 16.065L105.754 14.999H109.264C109.446 14.999 109.576 15.051 109.654 15.155C109.741 15.2503 109.784 15.3673 109.784 15.506C109.784 15.6447 109.723 15.7747 109.602 15.896C109.481 16.0087 109.325 16.065 109.134 16.065H105.624ZM109.128 16.065L109.258 14.999H112.768C112.95 14.999 113.08 15.051 113.158 15.155C113.245 15.2503 113.288 15.3673 113.288 15.506C113.288 15.6447 113.227 15.7747 113.106 15.896C112.985 16.0087 112.829 16.065 112.638 16.065H109.128ZM112.632 16.065L112.762 14.999H116.272C116.454 14.999 116.584 15.051 116.662 15.155C116.749 15.2503 116.792 15.3673 116.792 15.506C116.792 15.6447 116.731 15.7747 116.61 15.896C116.489 16.0087 116.333 16.065 116.142 16.065H112.632ZM116.136 16.065L116.266 14.999H119.776C119.958 14.999 120.088 15.051 120.166 15.155C120.252 15.2503 120.296 15.3673 120.296 15.506C120.296 15.6447 120.235 15.7747 120.114 15.896C119.992 16.0087 119.836 16.065 119.646 16.065H116.136ZM119.64 16.065L119.77 14.999H123.28C123.462 14.999 123.592 15.051 123.67 15.155C123.756 15.2503 123.8 15.3673 123.8 15.506C123.8 15.6447 123.739 15.7747 123.618 15.896C123.496 16.0087 123.34 16.065 123.15 16.065H119.64ZM123.144 16.065L123.274 14.999H126.784C126.966 14.999 127.096 15.051 127.174 15.155C127.26 15.2503 127.304 15.3673 127.304 15.506C127.304 15.6447 127.243 15.7747 127.122 15.896C127 16.0087 126.844 16.065 126.654 16.065H123.144ZM126.647 16.065L126.777 14.999H130.287C130.469 14.999 130.599 15.051 130.677 15.155C130.764 15.2503 130.807 15.3673 130.807 15.506C130.807 15.6447 130.747 15.7747 130.625 15.896C130.504 16.0087 130.348 16.065 130.157 16.065H126.647ZM130.151 16.065L130.281 14.999H133.791C133.973 14.999 134.103 15.051 134.181 15.155C134.268 15.2503 134.311 15.3673 134.311 15.506C134.311 15.6447 134.251 15.7747 134.129 15.896C134.008 16.0087 133.852 16.065 133.661 16.065H130.151ZM133.655 16.065L133.785 14.999H137.295C137.477 14.999 137.607 15.051 137.685 15.155C137.772 15.2503 137.815 15.3673 137.815 15.506C137.815 15.6447 137.755 15.7747 137.633 15.896C137.512 16.0087 137.356 16.065 137.165 16.065H133.655ZM137.159 16.065L137.289 14.999H140.799C140.981 14.999 141.111 15.051 141.189 15.155C141.276 15.2503 141.319 15.3673 141.319 15.506C141.319 15.6447 141.259 15.7747 141.137 15.896C141.016 16.0087 140.86 16.065 140.669 16.065H137.159ZM140.663 16.065L140.793 14.999H144.303C144.485 14.999 144.615 15.051 144.693 15.155C144.78 15.2503 144.823 15.3673 144.823 15.506C144.823 15.6447 144.762 15.7747 144.641 15.896C144.52 16.0087 144.364 16.065 144.173 16.065H140.663ZM144.167 16.065L144.297 14.999H147.807C147.989 14.999 148.119 15.051 148.197 15.155C148.284 15.2503 148.327 15.3673 148.327 15.506C148.327 15.6447 148.266 15.7747 148.145 15.896C148.024 16.0087 147.868 16.065 147.677 16.065H144.167ZM185.836 16.065L185.966 14.999H189.476C189.658 14.999 189.788 15.051 189.866 15.155C189.953 15.2503 189.996 15.3673 189.996 15.506C189.996 15.6447 189.935 15.7747 189.814 15.896C189.693 16.0087 189.537 16.065 189.346 16.065H185.836ZM189.34 16.065L189.47 14.999H192.98C193.162 14.999 193.292 15.051 193.37 15.155C193.457 15.2503 193.5 15.3673 193.5 15.506C193.5 15.6447 193.439 15.7747 193.318 15.896C193.197 16.0087 193.041 16.065 192.85 16.065H189.34ZM192.844 16.065L192.974 14.999H196.484C196.666 14.999 196.796 15.051 196.874 15.155C196.96 15.2503 197.004 15.3673 197.004 15.506C197.004 15.6447 196.943 15.7747 196.822 15.896C196.7 16.0087 196.544 16.065 196.354 16.065H192.844ZM196.348 16.065L196.478 14.999H199.988C200.17 14.999 200.3 15.051 200.378 15.155C200.464 15.2503 200.508 15.3673 200.508 15.506C200.508 15.6447 200.447 15.7747 200.326 15.896C200.204 16.0087 200.048 16.065 199.858 16.065H196.348ZM199.852 16.065L199.982 14.999H203.492C203.674 14.999 203.804 15.051 203.882 15.155C203.968 15.2503 204.012 15.3673 204.012 15.506C204.012 15.6447 203.951 15.7747 203.83 15.896C203.708 16.0087 203.552 16.065 203.362 16.065H199.852ZM203.355 16.065L203.485 14.999H206.995C207.177 14.999 207.307 15.051 207.385 15.155C207.472 15.2503 207.515 15.3673 207.515 15.506C207.515 15.6447 207.455 15.7747 207.333 15.896C207.212 16.0087 207.056 16.065 206.865 16.065H203.355ZM206.859 16.065L206.989 14.999H210.499C210.681 14.999 210.811 15.051 210.889 15.155C210.976 15.2503 211.019 15.3673 211.019 15.506C211.019 15.6447 210.959 15.7747 210.837 15.896C210.716 16.0087 210.56 16.065 210.369 16.065H206.859ZM210.363 16.065L210.493 14.999H214.003C214.185 14.999 214.315 15.051 214.393 15.155C214.48 15.2503 214.523 15.3673 214.523 15.506C214.523 15.6447 214.463 15.7747 214.341 15.896C214.22 16.0087 214.064 16.065 213.873 16.065H210.363ZM213.867 16.065L213.997 14.999H217.507C217.689 14.999 217.819 15.051 217.897 15.155C217.984 15.2503 218.027 15.3673 218.027 15.506C218.027 15.6447 217.967 15.7747 217.845 15.896C217.724 16.0087 217.568 16.065 217.377 16.065H213.867ZM217.371 16.065L217.501 14.999H221.011C221.193 14.999 221.323 15.051 221.401 15.155C221.488 15.2503 221.531 15.3673 221.531 15.506C221.531 15.6447 221.47 15.7747 221.349 15.896C221.228 16.0087 221.072 16.065 220.881 16.065H217.371ZM220.875 16.065L221.005 14.999H224.515C224.697 14.999 224.827 15.051 224.905 15.155C224.992 15.2503 225.035 15.3673 225.035 15.506C225.035 15.6447 224.974 15.7747 224.853 15.896C224.732 16.0087 224.576 16.065 224.385 16.065H220.875ZM224.379 16.065L224.509 14.999H228.019C228.201 14.999 228.331 15.051 228.409 15.155C228.496 15.2503 228.539 15.3673 228.539 15.506C228.539 15.6447 228.478 15.7747 228.357 15.896C228.236 16.0087 228.08 16.065 227.889 16.065H224.379ZM227.883 16.065L228.013 14.999H231.523C231.705 14.999 231.835 15.051 231.913 15.155C231.999 15.2503 232.043 15.3673 232.043 15.506C232.043 15.6447 231.982 15.7747 231.861 15.896C231.739 16.0087 231.583 16.065 231.393 16.065H227.883ZM231.387 16.065L231.517 14.999H235.027C235.209 14.999 235.339 15.051 235.417 15.155C235.503 15.2503 235.547 15.3673 235.547 15.506C235.547 15.6447 235.486 15.7747 235.365 15.896C235.243 16.0087 235.087 16.065 234.897 16.065H231.387ZM234.891 16.065L235.021 14.999H238.531C238.713 14.999 238.843 15.051 238.921 15.155C239.007 15.2503 239.051 15.3673 239.051 15.506C239.051 15.6447 238.99 15.7747 238.869 15.896C238.747 16.0087 238.591 16.065 238.401 16.065H234.891ZM238.395 16.065L238.525 14.999H242.035C242.217 14.999 242.347 15.051 242.425 15.155C242.511 15.2503 242.555 15.3673 242.555 15.506C242.555 15.6447 242.494 15.7747 242.373 15.896C242.251 16.0087 242.095 16.065 241.905 16.065H238.395ZM241.898 16.065L242.028 14.999H245.538C245.72 14.999 245.85 15.051 245.928 15.155C246.015 15.2503 246.058 15.3673 246.058 15.506C246.058 15.6447 245.998 15.7747 245.876 15.896C245.755 16.0087 245.599 16.065 245.408 16.065H241.898ZM245.402 16.065L245.532 14.999H249.042C249.224 14.999 249.354 15.051 249.432 15.155C249.519 15.2503 249.562 15.3673 249.562 15.506C249.562 15.6447 249.502 15.7747 249.38 15.896C249.259 16.0087 249.103 16.065 248.912 16.065H245.402ZM248.906 16.065L249.036 14.999H252.546C252.728 14.999 252.858 15.051 252.936 15.155C253.023 15.2503 253.066 15.3673 253.066 15.506C253.066 15.6447 253.006 15.7747 252.884 15.896C252.763 16.0087 252.607 16.065 252.416 16.065H248.906ZM252.41 16.065L252.54 14.999H256.05C256.232 14.999 256.362 15.051 256.44 15.155C256.527 15.2503 256.57 15.3673 256.57 15.506C256.57 15.6447 256.509 15.7747 256.388 15.896C256.267 16.0087 256.111 16.065 255.92 16.065H252.41ZM255.914 16.065L256.044 14.999H259.554C259.736 14.999 259.866 15.051 259.944 15.155C260.031 15.2503 260.074 15.3673 260.074 15.506C260.074 15.6447 260.013 15.7747 259.892 15.896C259.771 16.0087 259.615 16.065 259.424 16.065H255.914ZM259.418 16.065L259.548 14.999H263.058C263.24 14.999 263.37 15.051 263.448 15.155C263.535 15.2503 263.578 15.3673 263.578 15.506C263.578 15.6447 263.517 15.7747 263.396 15.896C263.275 16.0087 263.119 16.065 262.928 16.065H259.418ZM262.922 16.065L263.052 14.999H266.562C266.744 14.999 266.874 15.051 266.952 15.155C267.039 15.2503 267.082 15.3673 267.082 15.506C267.082 15.6447 267.021 15.7747 266.9 15.896C266.779 16.0087 266.623 16.065 266.432 16.065H262.922ZM266.426 16.065L266.556 14.999H270.066C270.248 14.999 270.378 15.051 270.456 15.155C270.542 15.2503 270.586 15.3673 270.586 15.506C270.586 15.6447 270.525 15.7747 270.404 15.896C270.282 16.0087 270.126 16.065 269.936 16.065H266.426ZM269.93 16.065L270.06 14.999H273.57C273.752 14.999 273.882 15.051 273.96 15.155C274.046 15.2503 274.09 15.3673 274.09 15.506C274.09 15.6447 274.029 15.7747 273.908 15.896C273.786 16.0087 273.63 16.065 273.44 16.065H269.93ZM273.434 16.065L273.564 14.999H277.074C277.256 14.999 277.386 15.051 277.464 15.155C277.55 15.2503 277.594 15.3673 277.594 15.506C277.594 15.6447 277.533 15.7747 277.412 15.896C277.29 16.0087 277.134 16.065 276.944 16.065H273.434ZM276.938 16.065L277.068 14.999H280.578C280.76 14.999 280.89 15.051 280.968 15.155C281.054 15.2503 281.098 15.3673 281.098 15.506C281.098 15.6447 281.037 15.7747 280.916 15.896C280.794 16.0087 280.638 16.065 280.448 16.065H276.938ZM280.441 16.065L280.571 14.999H284.081C284.263 14.999 284.393 15.051 284.471 15.155C284.558 15.2503 284.601 15.3673 284.601 15.506C284.601 15.6447 284.541 15.7747 284.419 15.896C284.298 16.0087 284.142 16.065 283.951 16.065H280.441ZM283.945 16.065L284.075 14.999H287.585C287.767 14.999 287.897 15.051 287.975 15.155C288.062 15.2503 288.105 15.3673 288.105 15.506C288.105 15.6447 288.045 15.7747 287.923 15.896C287.802 16.0087 287.646 16.065 287.455 16.065H283.945ZM287.449 16.065L287.579 14.999H291.089C291.271 14.999 291.401 15.051 291.479 15.155C291.566 15.2503 291.609 15.3673 291.609 15.506C291.609 15.6447 291.549 15.7747 291.427 15.896C291.306 16.0087 291.15 16.065 290.959 16.065H287.449ZM290.953 16.065L291.083 14.999H294.593C294.775 14.999 294.905 15.051 294.983 15.155C295.07 15.2503 295.113 15.3673 295.113 15.506C295.113 15.6447 295.052 15.7747 294.931 15.896C294.81 16.0087 294.654 16.065 294.463 16.065H290.953ZM294.457 16.065L294.587 14.999H298.097C298.279 14.999 298.409 15.051 298.487 15.155C298.574 15.2503 298.617 15.3673 298.617 15.506C298.617 15.6447 298.556 15.7747 298.435 15.896C298.314 16.0087 298.158 16.065 297.967 16.065H294.457ZM297.961 16.065L298.091 14.999H301.601C301.783 14.999 301.913 15.051 301.991 15.155C302.078 15.2503 302.121 15.3673 302.121 15.506C302.121 15.6447 302.06 15.7747 301.939 15.896C301.818 16.0087 301.662 16.065 301.471 16.065H297.961ZM301.465 16.065L301.595 14.999H305.105C305.287 14.999 305.417 15.051 305.495 15.155C305.582 15.2503 305.625 15.3673 305.625 15.506C305.625 15.6447 305.564 15.7747 305.443 15.896C305.322 16.0087 305.166 16.065 304.975 16.065H301.465ZM304.969 16.065L305.099 14.999H308.609C308.791 14.999 308.921 15.051 308.999 15.155C309.085 15.2503 309.129 15.3673 309.129 15.506C309.129 15.6447 309.068 15.7747 308.947 15.896C308.825 16.0087 308.669 16.065 308.479 16.065H304.969ZM308.473 16.065L308.603 14.999H312.113C312.295 14.999 312.425 15.051 312.503 15.155C312.589 15.2503 312.633 15.3673 312.633 15.506C312.633 15.6447 312.572 15.7747 312.451 15.896C312.329 16.0087 312.173 16.065 311.983 16.065H308.473ZM311.977 16.065L312.107 14.999H315.617C315.799 14.999 315.929 15.051 316.007 15.155C316.093 15.2503 316.137 15.3673 316.137 15.506C316.137 15.6447 316.076 15.7747 315.955 15.896C315.833 16.0087 315.677 16.065 315.487 16.065H311.977ZM315.48 16.065L315.61 14.999H319.12C319.302 14.999 319.432 15.051 319.51 15.155C319.597 15.2503 319.64 15.3673 319.64 15.506C319.64 15.6447 319.58 15.7747 319.458 15.896C319.337 16.0087 319.181 16.065 318.99 16.065H315.48ZM318.984 16.065L319.114 14.999H322.624C322.806 14.999 322.936 15.051 323.014 15.155C323.101 15.2503 323.144 15.3673 323.144 15.506C323.144 15.6447 323.084 15.7747 322.962 15.896C322.841 16.0087 322.685 16.065 322.494 16.065H318.984ZM322.488 16.065L322.618 14.999H326.128C326.31 14.999 326.44 15.051 326.518 15.155C326.605 15.2503 326.648 15.3673 326.648 15.506C326.648 15.6447 326.588 15.7747 326.466 15.896C326.345 16.0087 326.189 16.065 325.998 16.065H322.488ZM325.992 16.065L326.122 14.999H329.632C329.814 14.999 329.944 15.051 330.022 15.155C330.109 15.2503 330.152 15.3673 330.152 15.506C330.152 15.6447 330.092 15.7747 329.97 15.896C329.849 16.0087 329.693 16.065 329.502 16.065H325.992ZM329.496 16.065L329.626 14.999H333.136C333.318 14.999 333.448 15.051 333.526 15.155C333.613 15.2503 333.656 15.3673 333.656 15.506C333.656 15.6447 333.595 15.7747 333.474 15.896C333.353 16.0087 333.197 16.065 333.006 16.065H329.496Z" fill="#23255B" fill-opacity="0.5"/>
<path d="M165.77 19.536C165.397 19.536 164.997 19.504 164.57 19.44C164.154 19.3867 163.695 19.3067 163.194 19.2L163.386 18.192C163.951 18.2667 164.421 18.32 164.794 18.352C165.178 18.384 165.503 18.4 165.77 18.4C166.655 18.4 167.301 18.2293 167.706 17.888C168.111 17.5573 168.314 17.072 168.314 16.432V8.72L168.954 9.136H166.25C165.631 9.136 165.151 9.21067 164.81 9.36C164.479 9.50933 164.25 9.792 164.122 10.208C163.994 10.6133 163.93 11.2107 163.93 12C163.93 12.7893 163.994 13.392 164.122 13.808C164.25 14.2133 164.479 14.4907 164.81 14.64C165.151 14.7893 165.631 14.864 166.25 14.864H168.314V16H166.25C165.322 16 164.597 15.8613 164.074 15.584C163.562 15.296 163.199 14.8587 162.986 14.272C162.783 13.6747 162.682 12.9173 162.682 12C162.682 11.0827 162.783 10.3307 162.986 9.744C163.199 9.14667 163.562 8.70933 164.074 8.432C164.597 8.144 165.322 8 166.25 8H169.562V16.416C169.562 17.0773 169.407 17.6427 169.098 18.112C168.799 18.5813 168.367 18.9333 167.802 19.168C167.237 19.4133 166.559 19.536 165.77 19.536ZM172.297 16V4.528H173.529V16H172.297ZM172.169 3.472C171.998 3.25867 171.865 3.05067 171.769 2.848C171.683 2.64533 171.641 2.432 171.641 2.208C171.641 1.89867 171.715 1.62133 171.865 1.376C172.025 1.13067 172.233 0.938666 172.489 0.799999C172.745 0.661332 173.022 0.591999 173.321 0.591999C173.491 0.591999 173.662 0.618666 173.833 0.671999C174.003 0.714666 174.153 0.778666 174.281 0.863999L173.865 1.584C173.779 1.53067 173.694 1.49867 173.609 1.488C173.534 1.46667 173.454 1.456 173.369 1.456C173.123 1.456 172.926 1.52533 172.777 1.664C172.638 1.80267 172.569 1.984 172.569 2.208C172.569 2.34667 172.595 2.48 172.649 2.608C172.713 2.736 172.803 2.87467 172.921 3.024L172.169 3.472ZM171.337 3.472V2.624H174.489V3.472H171.337Z" fill="#5B5B68"/>
</svg>
