<svg width="30" height="20" viewBox="0 0 30 20" fill="none" xmlns="http://www.w3.org/2000/svg">
<g clip-path="url(#clip0_112_159)">
<path d="M0 0H30V19.9599H0V0Z" fill="white"/>
<path d="M0 0H30V6.65526H0V0Z" fill="#D80027"/>
<path d="M0 13.3105H30V19.9658H0V13.3105Z" fill="black"/>
<path d="M12.9082 11.9537C12.9082 11.9537 12.9082 8.53838 13.1719 8.16995C13.3535 7.91847 14.1562 8.47405 14.502 8.43312C14.502 8.43312 14.748 7.9945 14.7656 7.73133C14.7832 7.46231 14.7012 7.28687 14.4785 7.36874C14.4785 7.36874 14.4082 7.24593 14.5078 7.17575C14.6016 7.10557 14.8359 7.1816 14.8359 7.1816C14.8359 7.1816 14.8066 7.12312 14.9297 7.12897C15.0996 7.14066 15.3516 7.21084 15.3633 7.45647C15.375 7.63776 15.3809 7.90678 15.3867 7.96526C15.4277 8.36294 15.5449 8.47405 15.5449 8.47405C15.5449 8.47405 16.623 7.93602 16.834 8.16995C17.0273 8.39218 17.0977 11.9537 17.0977 11.9537L16.0371 10.9712L16.7461 12.6965C16.7461 12.6965 15.9023 12.8368 15.0527 12.8368C14.2031 12.8368 13.2305 12.5912 13.2305 12.5912L14.0391 10.942L12.9082 11.9537Z" fill="#C09300"/>
</g>
<defs>
<clipPath id="clip0_112_159">
<rect width="30" height="19.9599" rx="5" fill="white"/>
</clipPath>
</defs>
</svg>
